# xmcd
#
# Track frame offsets: 
#        150
#        19197
#        44482
#        94430
#        112605
#        137845
#
# Disc length: 2346 seconds
#
# Revision: 1
# Processed by: cddbd v1.5.2PL0 Copyright (c) Steve Scherf et al.
# Submitted via: ExactAudioCopy v1.3
#
DISCID=4a092806
DTITLE=Led Zeppelin - Physical Graffiti [CD 1) Remastered
DYEAR=1975
DGENRE=Classic Rock
TTITLE0=Custard Pie
TTITLE1=The Rover
TTITLE2=In My Time Of Dying
TTITLE3=Houses Of The Holy
TTITLE4=Trampled Under Foot
TTITLE5=Kashmir
EXTD=
EXTT0=
EXTT1=
EXTT2=
EXTT3=
EXTT4=
EXTT5=
PLAYORDER=
